<svg width="80" height="80" xmlns="http://www.w3.org/2000/svg" xmlns:xlink="http://www.w3.org/1999/xlink" xml:space="preserve" overflow="hidden"><g transform="translate(-407 -164)"><path d="M407 164 487 164 487 244 407 244Z" fill="#ED7100" fill-rule="evenodd"/><path d="M434 217 459 217 459 192 434 192 434 217ZM461 192 465 192 465 194 461 194 461 198 465 198 465 200 461 200 461 203 465 203 465 205 461 205 461 209 465 209 465 211 461 211 461 215 465 215 465 217 461 217 461 217.136C461 218.164 460.164 219 459.136 219L459 219 459 223 457 223 457 219 453 219 453 223 451 223 451 219 448 219 448 223 446 223 446 219 442 219 442 223 440 223 440 219 436 219 436 223 434 223 434 219 433.864 219C432.836 219 432 218.164 432 217.136L432 217 429 217 429 215 432 215 432 211 429 211 429 209 432 209 432 205 429 205 429 203 432 203 432 200 429 200 429 198 432 198 432 194 429 194 429 192 432 192 432 191.864C432 190.836 432.836 190 433.864 190L434 190 434 186 436 186 436 190 440 190 440 186 442 186 442 190 446 190 446 186 448 186 448 190 451 190 451 186 453 186 453 190 457 190 457 186 459 186 459 190 459.136 190C460.164 190 461 190.836 461 191.864L461 192ZM448 229.876C448 229.944 447.944 230 447.876 230L421.124 230C421.056 230 421 229.944 421 229.876L421 203.124C421 203.056 421.056 203 421.124 203L427 203 427 201 421.124 201C419.953 201 419 201.953 419 203.124L419 229.876C419 231.047 419.953 232 421.124 232L447.876 232C449.047 232 450 231.047 450 229.876L450 225 448 225 448 229.876ZM475 178.124 475 204.876C475 206.047 474.047 207 472.876 207L467 207 467 205 472.876 205C472.944 205 473 204.944 473 204.876L473 178.124C473 178.056 472.944 178 472.876 178L446.124 178C446.056 178 446 178.056 446 178.124L446 184 444 184 444 178.124C444 176.953 444.953 176 446.124 176L472.876 176C474.047 176 475 176.953 475 178.124L475 178.124Z" fill="#FFFFFF" fill-rule="evenodd"/></g></svg>