<svg width="80" height="80" xmlns="http://www.w3.org/2000/svg" xmlns:xlink="http://www.w3.org/1999/xlink" xml:space="preserve" overflow="hidden"><g transform="translate(-102 -132)"><path d="M102 132 182 132 182 212 102 212Z" fill="#7AA116" fill-rule="evenodd"/><path d="M162.836 174.893 163.22 172.189C166.761 174.31 166.807 175.186 166.806 175.21 166.8 175.215 166.196 175.719 162.836 174.893L162.836 174.893ZM160.893 174.353C154.773 172.501 146.25 168.591 142.801 166.961 142.801 166.947 142.805 166.934 142.805 166.92 142.805 165.595 141.727 164.517 140.401 164.517 139.077 164.517 137.999 165.595 137.999 166.92 137.999 168.245 139.077 169.323 140.401 169.323 140.983 169.323 141.511 169.106 141.928 168.761 145.986 170.682 154.443 174.535 160.608 176.355L158.17 193.561C158.163 193.608 158.16 193.655 158.16 193.702 158.16 195.217 151.453 198 140.494 198 129.419 198 122.641 195.217 122.641 193.702 122.641 193.656 122.638 193.611 122.632 193.566L117.538 156.359C121.947 159.394 131.43 161 140.5 161 149.556 161 159.023 159.4 163.441 156.374L160.893 174.353ZM117 152.478C117.072 151.162 124.634 146 140.5 146 156.364 146 163.927 151.161 164 152.478L164 152.927C163.13 155.878 153.33 159 140.5 159 127.648 159 117.843 155.868 117 152.913L117 152.478ZM166 152.5C166 149.035 156.066 144 140.5 144 124.934 144 115 149.035 115 152.5L115.094 153.254 120.642 193.778C120.775 198.31 132.861 200 140.494 200 149.966 200 160.029 197.822 160.159 193.781L162.555 176.884C163.888 177.203 164.985 177.366 165.866 177.366 167.049 177.366 167.849 177.077 168.334 176.499 168.732 176.025 168.884 175.451 168.77 174.84 168.511 173.456 166.868 171.964 163.522 170.055L165.898 153.293 166 152.5Z" fill="#FFFFFF" fill-rule="evenodd"/></g></svg>