<svg width="96" height="96" xmlns="http://www.w3.org/2000/svg" xmlns:xlink="http://www.w3.org/1999/xlink" xml:space="preserve" overflow="hidden"><defs><linearGradient x1="93" y1="172.733" x2="93" y2="190.813" gradientUnits="userSpaceOnUse" spreadMethod="pad" id="fill0"><stop offset="0" stop-color="#C69AEB"/><stop offset="1" stop-color="#6F4BB2"/></linearGradient><linearGradient x1="92.9467" y1="193.053" x2="92.9467" y2="206.173" gradientUnits="userSpaceOnUse" spreadMethod="pad" id="fill1"><stop offset="0" stop-color="#54AEF0"/><stop offset="1" stop-color="#1988D9"/></linearGradient></defs><g transform="translate(-45 -157)"><path d="M118.013 216.84 110.013 199.24 93 179.4 75.88 199.187 67.8267 216.733 70.6533 218.067 77.2133 203.773 83.6667 218.067 86.5467 216.787 79.08 200.307 93 184.2 106.867 200.36 99.2933 216.787 102.12 218.12 108.68 203.88 115.133 218.173 118.013 216.84Z" fill="#949494"/><path d="M102.013 181.8C102.013 186.778 97.9779 190.813 93 190.813 88.0221 190.813 83.9867 186.778 83.9867 181.8 83.9867 176.822 88.0221 172.787 93 172.787 97.9779 172.787 102.013 176.822 102.013 181.8Z" fill="url(#fill0)"/><path d="M77 193.053C80.62 192.906 83.6739 195.721 83.821 199.341 83.9681 202.961 81.1528 206.015 77.5328 206.163 73.9128 206.31 70.8589 203.494 70.7118 199.874 70.709 199.805 70.7073 199.736 70.7067 199.667 70.6749 196.125 73.4608 193.197 77 193.053ZM102.173 199.667C102.173 203.26 105.086 206.173 108.68 206.173 112.303 206.203 115.263 203.29 115.293 199.667 115.322 196.044 112.409 193.083 108.786 193.054 105.163 193.024 102.203 195.938 102.173 199.56 102.173 199.596 102.173 199.631 102.173 199.667Z" fill="url(#fill1)"/><path d="M74.3867 217.373C74.3867 220.23 72.0705 222.547 69.2133 222.547 66.3562 222.547 64.04 220.23 64.04 217.373 64.04 214.516 66.3562 212.2 69.2133 212.2 72.0705 212.2 74.3867 214.516 74.3867 217.373Z" fill="#37C2B1"/><path d="M90.28 217.427C90.28 220.284 87.9638 222.6 85.1067 222.6 82.2495 222.6 79.9333 220.284 79.9333 217.427 79.9333 214.57 82.2495 212.253 85.1067 212.253 87.9638 212.253 90.28 214.57 90.28 217.427Z" fill="#37C2B1"/><path d="M105.853 217.48C105.853 220.337 103.537 222.653 100.68 222.653 97.8228 222.653 95.5067 220.337 95.5067 217.48 95.5067 214.623 97.8228 212.307 100.68 212.307 103.537 212.307 105.853 214.623 105.853 217.48Z" fill="#37C2B1"/><path d="M121.747 217.533C121.747 220.39 119.43 222.707 116.573 222.707 113.716 222.707 111.4 220.39 111.4 217.533 111.4 214.676 113.716 212.36 116.573 212.36 119.43 212.36 121.747 214.676 121.747 217.533Z" fill="#37C2B1"/><path d="M47.6667 238.173C47.6639 238.481 47.8269 238.766 48.0933 238.92L54.2267 242.333 64.8933 248.413C65.3245 248.63 65.8497 248.493 66.12 248.093L69.3733 242.333C69.6218 241.968 69.527 241.47 69.1617 241.222 69.1273 241.198 69.091 241.178 69.0533 241.16L56.84 233.853C56.5736 233.7 56.4106 233.414 56.4133 233.107L56.4133 176.893C56.4106 176.586 56.5736 176.3 56.84 176.147L69.0533 169.053C69.4817 168.945 69.741 168.51 69.6326 168.081 69.5916 167.92 69.501 167.775 69.3733 167.667L65.9067 161.747C65.6364 161.347 65.1112 161.21 64.68 161.427L54.44 167.347 48.0933 171.08C47.8269 171.234 47.6639 171.519 47.6667 171.827L47.6667 238.173Z" fill="#949494"/><path d="M69.3733 167.667 65.9067 161.747C65.7085 161.445 65.3583 161.281 65 161.32L64.5733 161.32 54.3333 167.347 47.9867 171.08C47.8825 171.047 47.7708 171.047 47.6667 171.08L47.6667 171.08C47.6428 171.221 47.6428 171.365 47.6667 171.507L56.4133 176.84C56.4106 176.532 56.5736 176.247 56.84 176.093L69.0533 169.053C69.4817 168.945 69.741 168.51 69.6326 168.081 69.5916 167.92 69.501 167.775 69.3733 167.667Z" fill="#A3A3A3"/><path d="M69.3733 242.333 65.9067 248.467C65.7085 248.768 65.3583 248.933 65 248.893 64.862 248.942 64.7114 248.942 64.5733 248.893L54.3333 242.653 47.9867 238.92C47.8825 238.953 47.7708 238.953 47.6667 238.92L47.6667 238.92C47.6428 238.779 47.6428 238.635 47.6667 238.493L56.4133 233.16C56.4106 233.468 56.5736 233.753 56.84 233.907L69.0533 241C69.487 241.185 69.689 241.686 69.5045 242.119 69.4716 242.197 69.4274 242.269 69.3733 242.333Z" fill="#A3A3A3"/><path d="M138.333 171.827C138.336 171.519 138.173 171.234 137.907 171.08L131.773 167.667 121.107 161.587C120.676 161.37 120.15 161.507 119.88 161.907L116.627 167.667C116.378 168.032 116.473 168.53 116.838 168.778 116.873 168.801 116.909 168.822 116.947 168.84L129.16 175.933C129.427 176.087 129.589 176.372 129.587 176.68L129.587 233.107C129.589 233.414 129.427 233.7 129.16 233.853L116.947 240.947C116.547 241.135 116.376 241.612 116.565 242.012 116.582 242.049 116.603 242.085 116.627 242.12L120.093 248.253C120.364 248.653 120.889 248.79 121.32 248.573L131.56 242.653 137.907 238.92C138.173 238.766 138.336 238.481 138.333 238.173L138.333 171.827Z" fill="#949494"/><path d="M116.627 242.333 120.093 248.467C120.292 248.768 120.642 248.933 121 248.893L121.427 248.893 131.667 242.973 138.013 239.24C138.117 239.273 138.229 239.273 138.333 239.24L138.333 239.24C138.357 239.099 138.357 238.955 138.333 238.813L129.587 233.48C129.589 233.788 129.427 234.073 129.16 234.227L116.947 241.32C116.598 241.528 116.461 241.963 116.627 242.333Z" fill="#A3A3A3"/><path d="M116.627 167.667 120.093 161.747C120.292 161.445 120.642 161.281 121 161.32 121.138 161.271 121.289 161.271 121.427 161.32L131.667 167.24 138.013 170.973C138.117 170.941 138.229 170.941 138.333 170.973L138.333 170.973C138.357 171.115 138.357 171.259 138.333 171.4L129.587 176.733C129.589 176.426 129.427 176.14 129.16 175.987L116.947 169.053C116.505 168.888 116.281 168.397 116.446 167.955 116.486 167.848 116.548 167.75 116.627 167.667Z" fill="#A3A3A3"/></g></svg>