<svg width="96" height="96" xmlns="http://www.w3.org/2000/svg" xmlns:xlink="http://www.w3.org/1999/xlink" xml:space="preserve" overflow="hidden"><defs><clipPath id="clip0"><rect x="503" y="157" width="96" height="96"/></clipPath><radialGradient cx="-36.63" cy="17.12" r="11.18" gradientUnits="userSpaceOnUse" spreadMethod="pad" id="fill1" gradientTransform="matrix(5.01333 0 0 5.01333 726.36 117.533)"><stop offset="0" stop-color="#FFD70F"/><stop offset="0.27" stop-color="#FFD70F"/><stop offset="0.49" stop-color="#FFCB12"/><stop offset="0.88" stop-color="#FEAC19"/><stop offset="1" stop-color="#FEA11B"/></radialGradient></defs><g clip-path="url(#clip0)" transform="translate(-503 -157)"><path d="M575.32 195.347C579.635 191.039 579.642 184.049 575.334 179.734 575.329 179.729 575.325 179.725 575.32 179.72L575.32 179.72 556.333 160.68C552.053 156.38 545.096 156.363 540.796 160.644 540.784 160.656 540.772 160.668 540.76 160.68L540.76 160.68 521.773 179.72C517.511 184.057 517.511 191.01 521.773 195.347L537.773 211.347C538.339 211.936 538.663 212.716 538.68 213.533L538.68 242.973C538.666 243.969 539.05 244.929 539.747 245.64L546.947 252.84C547.848 253.812 549.366 253.869 550.338 252.969 550.383 252.927 550.426 252.884 550.467 252.84L557.453 245.853 557.453 245.853 561.56 241.747C562.119 241.224 562.149 240.347 561.627 239.787 561.605 239.764 561.583 239.741 561.56 239.72L558.627 236.733C558.008 236.144 557.984 235.165 558.573 234.547 558.591 234.529 558.609 234.511 558.627 234.493L561.56 231.507C562.119 230.984 562.149 230.107 561.627 229.547 561.605 229.524 561.583 229.501 561.56 229.48L558.467 226.333C557.863 225.772 557.829 224.827 558.39 224.223 558.415 224.196 558.441 224.171 558.467 224.147L561.667 221C562.226 220.477 562.256 219.6 561.733 219.04 561.712 219.017 561.69 218.995 561.667 218.973L557.56 214.813 557.56 213.32ZM548.653 165.267C552.129 165.296 554.923 168.137 554.893 171.613 554.864 175.089 552.022 177.882 548.547 177.853 545.092 177.824 542.307 175.015 542.307 171.56 542.277 168.114 545.047 165.296 548.493 165.267 548.511 165.267 548.529 165.267 548.547 165.267Z" fill="url(#fill1)"/><path d="M543.64 243.453 543.64 243.453C544.269 243.836 545.089 243.637 545.472 243.008 545.596 242.804 545.663 242.572 545.667 242.333L545.667 218.6C545.671 218.138 545.453 217.701 545.08 217.427L545.08 217.427C544.471 217.013 543.641 217.172 543.228 217.781 543.065 218.022 542.985 218.31 543 218.6L543 242.333C543.025 242.787 543.262 243.202 543.64 243.453Z" fill="#FF9300" fill-opacity="0.75"/><path d="M562.893 186.067C563.836 186.067 564.6 186.831 564.6 187.773L564.6 188.04C564.6 188.983 563.836 189.747 562.893 189.747L535.053 189.747C534.111 189.747 533.347 188.983 533.347 188.04L533.347 187.773C533.347 186.831 534.111 186.067 535.053 186.067Z" fill="#FF9300" fill-opacity="0.75"/><path d="M562.893 192.04C563.836 192.04 564.6 192.804 564.6 193.747L564.6 194.013C564.6 194.956 563.836 195.72 562.893 195.72L535.053 195.72C534.111 195.72 533.347 194.956 533.347 194.013L533.347 193.747C533.347 192.804 534.111 192.04 535.053 192.04Z" fill="#FF9300" fill-opacity="0.75"/></g></svg>