<svg width="80" height="80" xmlns="http://www.w3.org/2000/svg" xmlns:xlink="http://www.w3.org/1999/xlink" xml:space="preserve" overflow="hidden"><g transform="translate(-311 -144)"><path d="M311 144 391 144 391 224 311 224Z" fill="#DD344C" fill-rule="evenodd"/><path d="M358 186.814C357.979 188.629 357.462 194.316 352 194.938L352 173.036 358 175.592 358 186.814ZM344 186.766 344 175.592 350 173.036 350 194.938C344.537 194.311 344.021 188.583 344 186.766L344 186.766ZM350.608 170.603 342.608 174.011C342.239 174.168 342 174.53 342 174.931L342 186.777C342.054 191.493 344.443 197.001 351 197.001 357.556 197.001 359.945 191.526 360 186.827L360 174.931C360 174.53 359.761 174.168 359.392 174.011L351.392 170.603C351.142 170.497 350.858 170.497 350.608 170.603L350.608 170.603ZM362 186.825C361.999 187.322 361.843 199.001 351 199.001 340.157 199.001 340.001 187.286 340 186.788L340 172.949 351 168.262 362 172.949 362 186.825ZM363.392 171.368 351.392 166.255C351.142 166.148 350.858 166.148 350.608 166.255L338.608 171.368C338.239 171.525 338 171.887 338 172.288L338 186.788C338 186.93 338.148 201.001 351 201.001 363.852 201.001 364 186.968 364 186.827L364 172.288C364 171.887 363.761 171.525 363.392 171.368L363.392 171.368ZM377 188.308 373.577 188.112C373.119 188.085 372.653 188.413 372.545 188.891 371.994 191.335 371.035 193.651 369.693 195.778 369.433 196.192 369.509 196.733 369.873 197.058L372.431 199.34 366.339 205.431 364.064 202.881C363.737 202.515 363.196 202.441 362.784 202.702 360.661 204.044 358.341 205.004 355.89 205.558 355.413 205.666 355.084 206.103 355.112 206.591L355.308 210 346.692 210 346.888 206.588C346.916 206.1 346.587 205.663 346.11 205.555 343.667 205.003 341.349 204.041 339.22 202.697 338.807 202.437 338.265 202.51 337.939 202.877L335.661 205.431 329.569 199.34 332.123 197.063C332.487 196.737 332.563 196.196 332.303 195.783 330.962 193.658 330.003 191.339 329.452 188.892 329.345 188.414 328.896 188.089 328.42 188.112L325 188.308 325 179.692 328.428 179.887C328.889 179.903 329.351 179.587 329.46 179.11 330.013 176.67 330.975 174.356 332.316 172.231 332.577 171.818 332.501 171.276 332.137 170.951L329.569 168.661 335.661 162.569 337.95 165.134C338.275 165.5 338.817 165.574 339.229 165.314 341.352 163.976 343.666 163.018 346.109 162.467 346.587 162.359 346.916 161.922 346.888 161.435L346.692 158 355.308 158 355.112 161.437C355.084 161.925 355.413 162.361 355.89 162.469 358.331 163.022 360.645 163.981 362.766 165.319 363.176 165.579 363.72 165.504 364.045 165.139L366.339 162.569 372.431 168.661 369.867 170.947C369.503 171.272 369.427 171.814 369.688 172.227 371.028 174.349 371.988 176.664 372.542 179.109 372.649 179.587 373.119 179.903 373.574 179.887L377 179.692 377 188.308ZM378.687 177.906C378.487 177.718 378.214 177.618 377.943 177.635L374.291 177.843C373.739 175.752 372.911 173.754 371.82 171.885L374.553 169.448C374.758 169.265 374.879 169.006 374.887 168.731 374.895 168.456 374.788 168.189 374.594 167.995L367.005 160.406C366.811 160.211 366.532 160.107 366.27 160.114 365.994 160.122 365.735 160.242 365.552 160.447L363.106 163.187C361.239 162.098 359.244 161.271 357.156 160.72L357.364 157.056C357.38 156.782 357.282 156.513 357.093 156.313 356.904 156.113 356.642 156 356.366 156L345.634 156C345.358 156 345.096 156.113 344.907 156.313 344.718 156.513 344.62 156.782 344.636 157.056L344.844 160.717C342.755 161.267 340.758 162.094 338.889 163.182L336.448 160.447C336.265 160.242 336.006 160.122 335.73 160.114 335.472 160.109 335.189 160.211 334.995 160.406L327.406 167.995C327.212 168.189 327.105 168.456 327.113 168.731 327.121 169.006 327.242 169.265 327.447 169.448L330.184 171.89C329.092 173.76 328.263 175.756 327.712 177.843L324.057 177.635C323.785 177.617 323.513 177.718 323.313 177.906 323.113 178.095 323 178.358 323 178.633L323 189.366C323 189.641 323.113 189.904 323.313 190.093 323.513 190.282 323.786 190.377 324.057 190.365L327.702 190.157C328.252 192.251 329.079 194.252 330.171 196.124L327.447 198.552C327.242 198.735 327.121 198.995 327.113 199.27 327.105 199.545 327.212 199.811 327.406 200.005L334.995 207.594C335.189 207.789 335.469 207.897 335.73 207.886 336.006 207.878 336.266 207.758 336.448 207.552L338.878 204.829C340.752 205.923 342.753 206.753 344.844 207.304L344.636 210.943C344.62 211.218 344.718 211.486 344.907 211.687 345.096 211.887 345.358 212 345.634 212L356.366 212C356.642 212 356.904 211.887 357.093 211.687 357.282 211.486 357.38 211.217 357.364 210.943L357.156 207.307C359.253 206.755 361.255 205.926 363.126 204.834L365.552 207.552C365.734 207.758 365.994 207.878 366.27 207.886 366.535 207.899 366.811 207.789 367.005 207.594L374.594 200.005C374.788 199.811 374.895 199.545 374.887 199.27 374.879 198.995 374.758 198.735 374.553 198.552L371.825 196.119C372.917 194.247 373.745 192.247 374.295 190.157L377.943 190.365C378.213 190.376 378.487 190.282 378.687 190.093 378.887 189.904 379 189.641 379 189.366L379 178.633C379 178.358 378.887 178.095 378.687 177.906L378.687 177.906Z" fill="#FFFFFF" fill-rule="evenodd"/></g></svg>