<svg width="80" height="80" xmlns="http://www.w3.org/2000/svg" xmlns:xlink="http://www.w3.org/1999/xlink" xml:space="preserve" overflow="hidden"><g transform="translate(-742 -144)"><path d="M742 144 822 144 822 224 742 224Z" fill="#DD344C" fill-rule="evenodd"/><path d="M797.556 185.837C795.505 184.254 793.767 182.922 792.298 181.824 794.027 178.771 796.049 175.293 796.95 174.563 799.433 176.098 807.351 189.802 807.956 193.397 806.01 192.361 801.196 188.647 797.556 185.837M781.802 193.995C781.177 193.61 779.974 191.915 778.595 189.741 778.884 189.285 779.191 188.796 779.521 188.269 781.383 185.301 784.463 180.388 785.57 179.736 786.212 179.935 787.783 180.99 789.681 182.374 787.387 186.442 783.339 193.575 781.802 193.995M773.703 193.35C773.006 192.551 771.758 190.316 770.972 188.904 768.984 185.342 768.243 184.108 767.19 184.072 766.322 184.041 765.388 184.831 761.669 188.21 760.234 189.516 758.127 191.431 756.669 192.541 758.725 188.059 764.998 177.058 767.086 174.385 768.033 175.708 769.95 179.038 771.542 181.802 773.44 185.1 774.967 187.704 776.221 189.736 775.231 191.281 774.263 192.729 773.703 193.35M808.536 189.077C806.635 184.818 799.691 172.503 796.923 172.503 795.496 172.503 794.066 174.643 790.67 180.624 787.963 178.665 786.411 177.752 785.565 177.724 784.033 177.7 782.377 179.935 777.806 187.224 777.68 187.425 777.55 187.633 777.417 187.844 775.974 185.47 774.465 182.852 773.295 180.82 768.761 172.945 768.129 172.038 767.15 172.003 766.46 171.977 765.817 171.955 760.619 180.94 758.287 184.971 755.336 190.419 754.367 192.852 754.072 193.592 753.706 194.514 754.386 195.091 755.664 196.176 757.659 194.559 763.036 189.672 764.398 188.433 766.194 186.803 767.022 186.225 767.562 186.92 768.53 188.654 769.205 189.863 771.488 193.956 772.466 195.506 773.689 195.541 773.703 195.541 773.716 195.541 773.727 195.541 774.595 195.541 775.39 194.695 777.404 191.604 779.502 194.814 780.697 196 781.719 196L781.734 196C784.024 195.974 786.551 191.998 791.308 183.578 792.975 184.828 794.755 186.2 796.314 187.403 806.808 195.501 808.412 196.454 809.523 195.26 810.144 194.591 810.456 193.379 808.536 189.077" fill="#FFFFFF" fill-rule="evenodd"/></g></svg>