<svg width="80" height="80" xmlns="http://www.w3.org/2000/svg" xmlns:xlink="http://www.w3.org/1999/xlink" xml:space="preserve" overflow="hidden"><g transform="translate(-642 -138)"><path d="M642 138 722 138 722 218 642 218Z" fill="#E7157B" fill-rule="evenodd"/><path d="M695 177.963 700 177.963 700 175.96 695 175.96 695 177.963ZM670 189.982 675 189.982 675 187.979 670 187.979 670 189.982ZM660 189.982 667 189.982 667 187.979 660 187.979 660 189.982ZM660 183.972 672 183.972 672 181.969 660 181.969 660 183.972ZM660 171.954 669 171.954 669 169.951 660 169.951 660 171.954ZM660 177.963 693 177.963 693 175.96 660 175.96 660 177.963ZM679 199.997 656 199.997 656 165.945 679 165.945 679 173.957 681 173.957 681 164.943C681 164.39 680.552 163.942 680 163.942L655 163.942C654.447 163.942 654 164.39 654 164.943L654 200.999C654 201.551 654.447 202 655 202L680 202C680.552 202 681 201.551 681 200.999L681 180.968 679 180.968 679 199.997ZM710 174.959C710 181.43 704.173 183.682 701.092 183.968L685 183.972 685 181.969 701 181.969C701.195 181.946 708 181.212 708 174.959 708 169.264 702.863 168.108 701.834 167.934 701.321 167.847 700.96 167.382 701.004 166.863 701.005 166.844 701.007 166.826 701.009 166.808 700.954 163.59 698.981 162.585 698.126 162.3 696.53 161.769 694.751 162.277 693.81 163.539 693.591 163.836 693.229 163.987 692.861 163.931 692.497 163.876 692.192 163.625 692.068 163.277 691.447 161.536 690.546 160.408 689.293 159.153 686.159 156.039 681.905 155.178 677.925 156.853 675.837 157.733 674.012 159.728 672.922 162.327L671.078 161.55C672.37 158.474 674.584 156.089 677.15 155.007 681.905 153.005 686.971 154.026 690.704 157.734 691.774 158.807 692.66 159.852 693.35 161.204 694.843 160.098 696.857 159.767 698.757 160.399 701.189 161.209 702.727 163.321 702.975 166.129 706.381 166.988 710 169.712 710 174.959L710 174.959Z" fill="#FFFFFF" fill-rule="evenodd"/></g></svg>