<svg width="80" height="80" xmlns="http://www.w3.org/2000/svg" xmlns:xlink="http://www.w3.org/1999/xlink" xml:space="preserve" overflow="hidden"><g transform="translate(-59 -151)"><path d="M59 151 139 151 139 231 59 231Z" fill="#E7157B" fill-rule="evenodd"/><path d="M117.541 198.051 119.422 198.701 118.235 202.13C118.096 202.534 117.715 202.798 117.296 202.798 117.255 202.798 117.214 202.796 117.172 202.791L113.34 202.314 113.587 200.34 115.752 200.61C114.901 199.268 113.295 198.431 111.375 198.431 108.861 198.431 106.955 199.806 106.52 201.935L104.572 201.537C105.204 198.442 107.875 196.442 111.375 196.442 113.829 196.442 115.907 197.481 117.157 199.162L117.541 198.051ZM116.23 204.789 118.178 205.189C117.549 208.263 114.814 210.327 111.375 210.327 109.136 210.327 107.163 209.363 105.888 207.815L105.69 208.749 103.743 208.336 104.532 204.614C104.645 204.083 105.156 203.739 105.697 203.844L109.314 204.553 108.932 206.505 107.109 206.148C107.982 207.487 109.561 208.338 111.375 208.338 113.882 208.338 115.787 206.945 116.23 204.789L116.23 204.789ZM124.011 205.1 122.814 205.032C122.332 205.009 121.895 205.331 121.788 205.807 121.524 206.978 121.065 208.088 120.421 209.106 120.162 209.517 120.237 210.056 120.599 210.379L121.493 211.176 119.177 213.493 118.383 212.604C118.059 212.24 117.52 212.166 117.109 212.425 116.091 213.069 114.98 213.529 113.805 213.795 113.331 213.902 113.003 214.336 113.032 214.821L113.1 216.011 109.822 216.011 109.89 214.82C109.918 214.335 109.591 213.9 109.116 213.793 107.946 213.529 106.834 213.068 105.814 212.423 105.403 212.164 104.864 212.237 104.541 212.602L103.745 213.493 101.428 211.176 102.319 210.381C102.682 210.058 102.758 209.52 102.498 209.109 101.856 208.09 101.397 206.98 101.132 205.806 101.026 205.331 100.575 204.999 100.106 205.032L98.9115 205.1 98.9115 201.822 100.11 201.89C100.551 201.91 101.028 201.592 101.136 201.117 101.401 199.948 101.861 198.839 102.505 197.821 102.765 197.409 102.688 196.871 102.326 196.548L101.428 195.746 103.745 193.428 104.547 194.325C104.869 194.689 105.41 194.763 105.819 194.505 106.836 193.863 107.946 193.405 109.116 193.14 109.591 193.033 109.918 192.598 109.89 192.113L109.822 190.911 113.1 190.911 113.032 192.115C113.003 192.6 113.331 193.034 113.805 193.141 114.975 193.406 116.083 193.866 117.099 194.507 117.508 194.765 118.048 194.691 118.372 194.328L119.176 193.428 121.493 195.746 120.597 196.545C120.235 196.869 120.16 197.407 120.419 197.818 121.062 198.837 121.522 199.946 121.787 201.117 121.894 201.592 122.355 201.91 122.813 201.89L124.011 201.822 124.011 205.1ZM125.688 200.046C125.49 199.858 125.214 199.759 124.949 199.775L123.512 199.858C123.267 199.036 122.939 198.243 122.53 197.488L123.604 196.529C123.808 196.347 123.928 196.089 123.936 195.815 123.943 195.542 123.838 195.277 123.645 195.084L119.838 191.277C119.644 191.083 119.392 190.971 119.106 190.986 118.833 190.994 118.575 191.113 118.392 191.317L117.43 192.396C116.676 191.989 115.885 191.66 115.064 191.416L115.146 189.973C115.161 189.7 115.064 189.432 114.875 189.234 114.688 189.035 114.427 188.922 114.153 188.922L108.769 188.922C108.495 188.922 108.234 189.035 108.046 189.234 107.858 189.432 107.761 189.7 107.777 189.973L107.858 191.414C107.035 191.658 106.245 191.987 105.49 192.395L104.529 191.318C104.347 191.113 104.09 190.994 103.815 190.986 103.537 190.974 103.278 191.083 103.084 191.277L99.2765 195.084C99.0826 195.277 98.9771 195.542 98.9851 195.815 98.993 196.089 99.1134 196.347 99.3173 196.529L100.395 197.491C99.9857 198.245 99.6574 199.038 99.4108 199.858L97.9726 199.775C97.701 199.758 97.4315 199.858 97.2336 200.046 97.0346 200.234 96.9222 200.496 96.9222 200.769L96.9222 206.153C96.9222 206.426 97.0346 206.688 97.2336 206.876 97.4315 207.064 97.702 207.16 97.9726 207.146L99.4058 207.064C99.6515 207.888 99.9797 208.681 100.389 209.438L99.3173 210.392C99.1134 210.575 98.993 210.833 98.9851 211.106 98.9771 211.38 99.0826 211.644 99.2765 211.838L103.084 215.645C103.278 215.839 103.561 215.945 103.815 215.936 104.09 215.928 104.347 215.808 104.529 215.604L105.484 214.534C106.241 214.943 107.035 215.273 107.858 215.518L107.777 216.949C107.761 217.222 107.858 217.49 108.046 217.689 108.234 217.888 108.495 218 108.769 218L114.153 218C114.427 218 114.688 217.888 114.875 217.689 115.064 217.49 115.161 217.222 115.146 216.949L115.064 215.52C115.889 215.275 116.683 214.945 117.439 214.536L118.392 215.604C118.574 215.809 118.833 215.928 119.106 215.936 119.395 215.948 119.644 215.839 119.838 215.645L123.645 211.838C123.838 211.644 123.943 211.38 123.936 211.106 123.928 210.833 123.808 210.575 123.604 210.393L122.532 209.436C122.94 208.68 123.27 207.887 123.514 207.064L124.949 207.146C125.213 207.159 125.49 207.063 125.688 206.876 125.888 206.688 126 206.426 126 206.153L126 200.769C126 200.496 125.888 200.234 125.688 200.046L125.688 200.046ZM73.9892 205.774 93.8817 205.774 93.8817 207.763 72.9946 207.763C72.4446 207.763 72 207.318 72 206.769L72 164.995C72 164.446 72.4446 164 72.9946 164L118.747 164C119.297 164 119.742 164.446 119.742 164.995L119.742 186.876 117.753 186.876 117.753 165.989 73.9892 165.989 73.9892 205.774ZM106.812 177.925 105.817 177.925 105.817 175.936 106.812 175.936 110.79 175.936 111.785 175.936 111.785 177.925 110.79 177.925 106.812 177.925ZM107.806 173.946 109.796 173.946 109.796 169.968 107.806 169.968 107.806 173.946ZM111.785 186.876 111.785 179.914 112.779 179.914C113.329 179.914 113.774 179.468 113.774 178.919L113.774 174.941C113.774 174.392 113.329 173.946 112.779 173.946L111.785 173.946 111.785 168.973C111.785 168.424 111.34 167.979 110.79 167.979L106.812 167.979C106.262 167.979 105.817 168.424 105.817 168.973L105.817 173.946 104.822 173.946C104.272 173.946 103.828 174.392 103.828 174.941L103.828 178.919C103.828 179.468 104.272 179.914 104.822 179.914L105.817 179.914 105.817 186.876 107.806 186.876 107.806 179.914 109.796 179.914 109.796 186.876 111.785 186.876ZM92.8871 188.866 91.8924 188.866 91.8924 186.876 92.8871 186.876 96.8655 186.876 97.8602 186.876 97.8602 188.866 96.8655 188.866 92.8871 188.866ZM93.8817 184.887 95.8709 184.887 95.8709 169.968 93.8817 169.968 93.8817 184.887ZM97.8602 192.844 97.8602 190.855 98.8548 190.855C99.4048 190.855 99.8494 190.409 99.8494 189.86L99.8494 185.882C99.8494 185.333 99.4048 184.887 98.8548 184.887L97.8602 184.887 97.8602 168.973C97.8602 168.424 97.4156 167.979 96.8655 167.979L92.8871 167.979C92.337 167.979 91.8924 168.424 91.8924 168.973L91.8924 184.887 90.8978 184.887C90.3478 184.887 89.9032 185.333 89.9032 185.882L89.9032 189.86C89.9032 190.409 90.3478 190.855 90.8978 190.855L91.8924 190.855 91.8924 201.796 93.8817 201.796 93.8817 190.855 95.8709 190.855 95.8709 192.844 97.8602 192.844ZM77.9677 178.919 78.9624 178.919 82.9408 178.919 83.9355 178.919 83.9355 180.909 82.9408 180.909 78.9624 180.909 77.9677 180.909 77.9677 178.919ZM79.957 176.93 81.9462 176.93 81.9462 169.968 79.957 169.968 79.957 176.93ZM79.957 199.806 81.9462 199.806 81.9462 182.898 79.957 182.898 79.957 199.806ZM78.9624 201.796 82.9408 201.796C83.4909 201.796 83.9355 201.35 83.9355 200.801L83.9355 182.898 84.9301 182.898C85.4801 182.898 85.9247 182.452 85.9247 181.903L85.9247 177.925C85.9247 177.376 85.4801 176.93 84.9301 176.93L83.9355 176.93 83.9355 168.973C83.9355 168.424 83.4909 167.979 82.9408 167.979L78.9624 167.979C78.4123 167.979 77.9677 168.424 77.9677 168.973L77.9677 176.93 76.9731 176.93C76.4231 176.93 75.9785 177.376 75.9785 177.925L75.9785 181.903C75.9785 182.452 76.4231 182.898 76.9731 182.898L77.9677 182.898 77.9677 200.801C77.9677 201.35 78.4123 201.796 78.9624 201.796L78.9624 201.796Z" fill="#FFFFFF" fill-rule="evenodd"/></g></svg>