<svg width="80" height="80" xmlns="http://www.w3.org/2000/svg" xmlns:xlink="http://www.w3.org/1999/xlink" xml:space="preserve" overflow="hidden"><g transform="translate(-108 -138)"><path d="M108 138 188 138 188 218 108 218Z" fill="#E7157B" fill-rule="evenodd"/><path d="M163.059 184.777C163.059 180.868 159.858 177.688 155.922 177.688 151.987 177.688 148.786 180.868 148.786 184.777 148.786 188.687 151.987 191.867 155.922 191.867 159.858 191.867 163.059 188.687 163.059 184.777M165.07 184.777C165.07 189.788 160.966 193.864 155.922 193.864 150.879 193.864 146.775 189.788 146.775 184.777 146.775 179.767 150.879 175.69 155.922 175.69 160.966 175.69 165.07 179.767 165.07 184.777M173.51 198.473 166.501 192.203C165.935 192.995 165.281 193.717 164.554 194.363L171.553 200.633C172.15 201.169 173.078 201.119 173.618 200.526 174.155 199.932 174.107 199.011 173.51 198.473M155.922 195.662C161.965 195.662 166.88 190.779 166.88 184.777 166.88 178.775 161.965 173.893 155.922 173.893 149.881 173.893 144.965 178.775 144.965 184.777 144.965 190.779 149.881 195.662 155.922 195.662M175.112 201.863C174.426 202.617 173.479 203 172.529 203 171.7 203 170.87 202.708 170.208 202.117L162.931 195.599C160.907 196.897 158.505 197.659 155.922 197.659 148.772 197.659 142.954 191.88 142.954 184.777 142.954 177.675 148.772 171.896 155.922 171.896 163.073 171.896 168.891 177.675 168.891 184.777 168.891 186.815 168.399 188.737 167.547 190.451L174.856 196.991C176.275 198.266 176.39 200.45 175.112 201.863M129.28 167.393C129.28 167.912 129.312 168.429 129.374 168.929 129.409 169.214 129.32 169.499 129.13 169.713 128.978 169.884 128.774 169.997 128.551 170.035 126.079 170.669 122.01 172.588 122.01 178.346 122.01 182.693 124.424 185.093 126.45 186.341 127.141 186.775 127.959 187.005 128.823 187.014L140.945 187.025 140.943 189.022 128.812 189.011C127.566 188.998 126.384 188.661 125.384 188.035 123.377 186.797 120 183.89 120 178.346 120 171.662 124.6 169.192 127.3 168.319 127.28 168.012 127.27 167.702 127.27 167.393 127.27 161.932 130.998 156.27 135.942 154.222 141.724 151.815 147.85 153.008 152.326 157.411 153.714 158.775 154.854 160.432 155.73 162.348 156.906 161.38 158.356 160.846 159.884 160.846 162.886 160.846 166.266 163.11 166.868 168.061 169.68 168.705 175.621 170.955 175.621 178.423 175.621 181.404 174.68 183.867 172.823 185.742L171.39 184.341C172.863 182.853 173.61 180.862 173.61 178.423 173.61 171.891 168.105 170.266 165.737 169.872 165.468 169.827 165.229 169.675 165.076 169.452 164.926 169.236 164.869 168.971 164.914 168.715 164.585 164.66 162.161 162.843 159.884 162.843 158.447 162.843 157.1 163.538 156.187 164.75 155.965 165.044 155.604 165.194 155.234 165.14 154.87 165.086 154.563 164.836 154.437 164.492 153.614 162.226 152.428 160.321 150.912 158.831 147.033 155.015 141.728 153.981 136.717 156.065 132.546 157.792 129.28 162.767 129.28 167.393" fill="#FFFFFF" fill-rule="evenodd"/></g></svg>