<svg width="144" height="144" xmlns="http://www.w3.org/2000/svg" xmlns:xlink="http://www.w3.org/1999/xlink" xml:space="preserve" overflow="hidden"><g transform="translate(-1063 -508)"><path d="M1103.72 568.153C1103.72 569.917 1103.91 571.348 1104.24 572.397 1104.63 573.446 1105.1 574.59 1105.77 575.83 1106.01 576.211 1106.1 576.593 1106.1 576.926 1106.1 577.403 1105.82 577.88 1105.2 578.357L1102.19 580.359C1101.77 580.646 1101.34 580.789 1100.95 580.789 1100.48 580.789 1100 580.55 1099.52 580.121 1098.86 579.406 1098.28 578.643 1097.81 577.88 1097.33 577.069 1096.85 576.163 1096.33 575.067 1092.61 579.454 1087.94 581.647 1082.31 581.647 1078.31 581.647 1075.11 580.503 1072.77 578.214 1070.44 575.925 1069.25 572.873 1069.25 569.059 1069.25 565.006 1070.68 561.716 1073.59 559.236 1076.49 556.757 1080.36 555.517 1085.27 555.517 1086.89 555.517 1088.56 555.66 1090.32 555.899 1092.09 556.137 1093.9 556.518 1095.81 556.948L1095.81 553.467C1095.81 549.843 1095.04 547.316 1093.56 545.838 1092.04 544.359 1089.46 543.644 1085.79 543.644 1084.12 543.644 1082.41 543.835 1080.64 544.264 1078.88 544.693 1077.16 545.218 1075.49 545.885 1074.73 546.219 1074.16 546.41 1073.82 546.505 1073.49 546.601 1073.25 546.648 1073.06 546.648 1072.39 546.648 1072.06 546.171 1072.06 545.17L1072.06 542.834C1072.06 542.071 1072.16 541.499 1072.39 541.165 1072.63 540.831 1073.06 540.497 1073.73 540.163 1075.4 539.305 1077.4 538.59 1079.74 538.018 1082.07 537.398 1084.55 537.112 1087.17 537.112 1092.85 537.112 1097 538.399 1099.67 540.974 1102.29 543.549 1103.63 547.459 1103.63 552.704L1103.63 568.153 1103.72 568.153ZM1084.36 575.401C1085.94 575.401 1087.56 575.114 1089.27 574.542 1090.99 573.97 1092.52 572.921 1093.8 571.491 1094.57 570.585 1095.14 569.583 1095.42 568.439 1095.71 567.295 1095.9 565.912 1095.9 564.291L1095.9 562.288C1094.52 561.954 1093.04 561.668 1091.51 561.477 1089.99 561.287 1088.51 561.191 1087.03 561.191 1083.84 561.191 1081.5 561.811 1079.93 563.099 1078.35 564.386 1077.59 566.198 1077.59 568.582 1077.59 570.823 1078.16 572.492 1079.35 573.636 1080.5 574.828 1082.17 575.401 1084.36 575.401ZM1122.65 580.55C1121.79 580.55 1121.22 580.407 1120.84 580.073 1120.46 579.787 1120.12 579.12 1119.84 578.214L1108.63 541.356C1108.35 540.402 1108.2 539.782 1108.2 539.448 1108.2 538.685 1108.58 538.256 1109.35 538.256L1114.02 538.256C1114.93 538.256 1115.55 538.399 1115.88 538.733 1116.26 539.019 1116.55 539.687 1116.83 540.593L1124.84 572.158 1132.28 540.593C1132.52 539.639 1132.81 539.019 1133.19 538.733 1133.57 538.447 1134.24 538.256 1135.1 538.256L1138.91 538.256C1139.82 538.256 1140.44 538.399 1140.82 538.733 1141.2 539.019 1141.53 539.687 1141.72 540.593L1149.26 572.54 1157.51 540.593C1157.79 539.639 1158.13 539.019 1158.46 538.733 1158.84 538.447 1159.46 538.256 1160.32 538.256L1164.75 538.256C1165.52 538.256 1165.95 538.638 1165.95 539.448 1165.95 539.687 1165.9 539.925 1165.85 540.211 1165.8 540.497 1165.71 540.879 1165.52 541.403L1154.03 578.261C1153.74 579.215 1153.41 579.835 1153.02 580.121 1152.64 580.407 1152.02 580.598 1151.21 580.598L1147.11 580.598C1146.21 580.598 1145.59 580.455 1145.2 580.121 1144.82 579.787 1144.49 579.167 1144.3 578.214L1136.91 547.459 1129.56 578.166C1129.33 579.12 1129.04 579.74 1128.66 580.073 1128.28 580.407 1127.61 580.55 1126.75 580.55L1122.65 580.55ZM1183.92 581.838C1181.44 581.838 1178.96 581.552 1176.58 580.979 1174.19 580.407 1172.34 579.787 1171.1 579.072 1170.33 578.643 1169.81 578.166 1169.62 577.737 1169.43 577.308 1169.33 576.831 1169.33 576.402L1169.33 573.97C1169.33 572.969 1169.71 572.492 1170.43 572.492 1170.71 572.492 1171 572.54 1171.29 572.635 1171.57 572.73 1172 572.921 1172.48 573.112 1174.1 573.827 1175.86 574.399 1177.72 574.781 1179.63 575.162 1181.49 575.353 1183.4 575.353 1186.4 575.353 1188.74 574.828 1190.36 573.779 1191.98 572.73 1192.84 571.205 1192.84 569.25 1192.84 567.914 1192.41 566.818 1191.55 565.912 1190.69 565.006 1189.07 564.195 1186.74 563.432L1179.82 561.287C1176.34 560.19 1173.77 558.569 1172.19 556.423 1170.62 554.325 1169.81 551.989 1169.81 549.509 1169.81 547.507 1170.24 545.742 1171.1 544.216 1171.95 542.691 1173.1 541.356 1174.53 540.307 1175.96 539.21 1177.58 538.399 1179.49 537.827 1181.39 537.255 1183.4 537.016 1185.5 537.016 1186.54 537.016 1187.64 537.064 1188.69 537.207 1189.79 537.35 1190.79 537.541 1191.79 537.732 1192.74 537.97 1193.65 538.208 1194.51 538.495 1195.37 538.781 1196.03 539.067 1196.51 539.353 1197.18 539.734 1197.65 540.116 1197.94 540.545 1198.23 540.926 1198.37 541.451 1198.37 542.118L1198.37 544.359C1198.37 545.361 1197.99 545.885 1197.27 545.885 1196.89 545.885 1196.27 545.695 1195.46 545.313 1192.74 544.073 1189.69 543.454 1186.31 543.454 1183.59 543.454 1181.44 543.883 1179.96 544.789 1178.49 545.695 1177.72 547.077 1177.72 549.032 1177.72 550.367 1178.2 551.512 1179.15 552.418 1180.11 553.324 1181.87 554.23 1184.4 555.04L1191.17 557.186C1194.6 558.283 1197.08 559.808 1198.56 561.763 1200.04 563.718 1200.75 565.959 1200.75 568.439 1200.75 570.489 1200.32 572.349 1199.51 573.97 1198.66 575.591 1197.51 577.022 1196.03 578.166 1194.56 579.358 1192.79 580.216 1190.74 580.836 1188.59 581.504 1186.35 581.838 1183.92 581.838Z" fill="#252F3E"/><path d="M1192.93 605.011C1177.25 616.598 1154.45 622.749 1134.86 622.749 1107.39 622.749 1082.65 612.592 1063.95 595.713 1062.48 594.378 1063.81 592.566 1065.57 593.615 1085.79 605.345 1110.73 612.45 1136.53 612.45 1153.93 612.45 1173.05 608.826 1190.64 601.387 1193.27 600.195 1195.51 603.104 1192.93 605.011ZM1199.47 597.573C1197.46 594.998 1186.21 596.333 1181.11 596.953 1179.58 597.143 1179.34 595.808 1180.73 594.807 1189.69 588.513 1204.43 590.325 1206.14 592.423 1207.86 594.569 1205.66 609.302 1197.27 616.359 1195.99 617.456 1194.75 616.884 1195.32 615.453 1197.23 610.733 1201.47 600.1 1199.47 597.573Z" fill="#FF9900"/></g></svg>