<svg width="80" height="80" xmlns="http://www.w3.org/2000/svg" xmlns:xlink="http://www.w3.org/1999/xlink" xml:space="preserve" overflow="hidden"><g transform="translate(-682 -390)"><path d="M682 390 762 390 762 470 682 470Z" fill="#DD344C" fill-rule="evenodd"/><path d="M726.17 431.245C726.17 431.417 726.122 435.084 723.17 435.771L723.17 424.786 726.17 426.086 726.17 431.245ZM718.17 431.229 718.17 426.086 721.17 424.786 721.17 435.774C718.295 435.114 718.173 431.659 718.17 431.229L718.17 431.229ZM727.567 424.512 722.567 422.345C722.314 422.235 722.026 422.235 721.773 422.345L716.773 424.512C716.406 424.67 716.17 425.031 716.17 425.43L716.17 431.229C716.17 433.534 717.424 437.892 722.17 437.892 726.916 437.892 728.17 433.544 728.17 431.245L728.17 425.43C728.17 425.031 727.934 424.67 727.567 424.512L727.567 424.512ZM740.99 444.174C739.213 444.174 737.768 442.729 737.768 440.952 737.768 439.175 739.213 437.729 740.99 437.729 742.768 437.729 744.213 439.175 744.213 440.952 744.213 442.729 742.768 444.174 740.99 444.174L740.99 444.174ZM722.267 439.952C716.74 439.952 712.244 435.456 712.244 429.93 712.244 424.403 716.74 419.907 722.267 419.907 727.793 419.907 732.289 424.403 732.289 429.93 732.289 435.456 727.793 439.952 722.267 439.952L722.267 439.952ZM725.508 451.809C725.508 453.586 724.063 455.032 722.285 455.032 720.508 455.032 719.063 453.586 719.063 451.809 719.063 450.033 720.508 448.587 722.285 448.587 724.063 448.587 725.508 450.033 725.508 451.809L725.508 451.809ZM719.125 407.222C719.125 405.445 720.57 404 722.348 404 724.124 404 725.569 405.445 725.569 407.222 725.569 408.999 724.124 410.445 722.348 410.445 720.57 410.445 719.125 408.999 719.125 407.222L719.125 407.222ZM703.223 442.956C701.445 442.956 700 441.511 700 439.734 700 437.957 701.445 436.512 703.223 436.512 704.999 436.512 706.444 437.957 706.444 439.734 706.444 441.511 704.999 442.956 703.223 442.956L703.223 442.956ZM704.32 421.87C702.543 421.87 701.098 420.425 701.098 418.648 701.098 416.871 702.543 415.425 704.32 415.425 706.097 415.425 707.542 416.871 707.542 418.648 707.542 420.425 706.097 421.87 704.32 421.87L704.32 421.87ZM741.117 414.633C742.895 414.633 744.34 416.078 744.34 417.855 744.34 419.632 742.895 421.078 741.117 421.078 739.341 421.078 737.896 419.632 737.896 417.855 737.896 416.078 739.341 414.633 741.117 414.633L741.117 414.633ZM740.99 435.729C739.545 435.729 738.235 436.321 737.289 437.273L733.323 434.645C733.943 433.196 734.289 431.603 734.289 429.93 734.289 427.741 733.691 425.694 732.666 423.925L737.204 421.276C738.162 422.371 739.552 423.078 741.117 423.078 743.997 423.078 746.34 420.735 746.34 417.855 746.34 414.975 743.997 412.633 741.117 412.633 738.238 412.633 735.896 414.975 735.896 417.855 735.896 418.45 736.017 419.013 736.201 419.546L731.528 422.273C729.522 419.85 726.582 418.233 723.267 417.958L723.267 412.352C725.707 411.915 727.569 409.787 727.569 407.222 727.569 404.343 725.227 402 722.348 402 719.468 402 717.125 404.343 717.125 407.222 717.125 409.731 718.904 411.829 721.267 412.329L721.267 417.958C717.717 418.252 714.608 420.095 712.604 422.807L709.166 420.566C709.402 419.971 709.542 419.327 709.542 418.648 709.542 415.768 707.199 413.425 704.32 413.425 701.441 413.425 699.098 415.768 699.098 418.648 699.098 421.528 701.441 423.87 704.32 423.87 705.802 423.87 707.134 423.244 708.085 422.249L711.551 424.509C710.722 426.14 710.244 427.978 710.244 429.93 710.244 431.416 710.528 432.834 711.024 434.15L707.163 436.346C706.205 435.233 704.803 434.512 703.223 434.512 700.343 434.512 698 436.854 698 439.734 698 442.614 700.343 444.956 703.223 444.956 706.102 444.956 708.444 442.614 708.444 439.734 708.444 439.154 708.327 438.606 708.152 438.084L711.884 435.961C713.813 439.27 717.27 441.576 721.285 441.902L721.285 446.688C718.883 447.156 717.063 449.272 717.063 451.809 717.063 454.689 719.405 457.032 722.285 457.032 725.165 457.032 727.508 454.689 727.508 451.809 727.508 449.272 725.688 447.156 723.285 446.688L723.285 441.9C727.1 441.578 730.406 439.471 732.374 436.415L736.175 438.934C735.913 439.555 735.768 440.237 735.768 440.952 735.768 443.831 738.11 446.174 740.99 446.174 743.87 446.174 746.213 443.831 746.213 440.952 746.213 438.072 743.87 435.729 740.99 435.729L740.99 435.729Z" fill="#FFFFFF" fill-rule="evenodd"/></g></svg>