<svg width="80" height="80" xmlns="http://www.w3.org/2000/svg" xmlns:xlink="http://www.w3.org/1999/xlink" xml:space="preserve" overflow="hidden"><g transform="translate(-674 -141)"><path d="M674 141 754 141 754 221 674 221Z" fill="#DD344C" fill-rule="evenodd"/><path d="M725.997 193.496 732.997 193.496 732.997 191.496 725.997 191.496 725.997 193.496ZM716.997 193.496 723.997 193.496 723.997 191.496 716.997 191.496 716.997 193.496ZM707.997 193.496 714.997 193.496 714.997 191.496 707.997 191.496 707.997 193.496ZM718.997 185.496C718.997 184.393 719.895 183.496 720.997 183.496 722.1 183.496 722.997 184.393 722.997 185.496 722.997 186.599 722.1 187.496 720.997 187.496 719.895 187.496 718.997 186.599 718.997 185.496L718.997 185.496ZM724.997 185.496C724.997 183.29 723.204 181.496 720.997 181.496 718.791 181.496 716.997 183.29 716.997 185.496 716.997 187.702 718.791 189.496 720.997 189.496 723.204 189.496 724.997 187.702 724.997 185.496L724.997 185.496ZM710.997 183.496C712.1 183.496 712.997 184.393 712.997 185.496 712.997 186.599 712.1 187.496 710.997 187.496 709.895 187.496 708.997 186.599 708.997 185.496 708.997 184.393 709.895 183.496 710.997 183.496L710.997 183.496ZM710.997 189.496C713.204 189.496 714.997 187.702 714.997 185.496 714.997 183.29 713.204 181.496 710.997 181.496 708.791 181.496 706.997 183.29 706.997 185.496 706.997 187.702 708.791 189.496 710.997 189.496L710.997 189.496ZM739.997 174.496 739.997 197.496C739.997 198.048 739.55 198.496 738.997 198.496L707.997 198.496 707.997 196.496 737.997 196.496 737.997 175.496 715.997 175.496 715.997 173.496 738.997 173.496C739.55 173.496 739.997 173.944 739.997 174.496L739.997 174.496ZM704.696 179.543C704.28 179.674 703.997 180.06 703.997 180.496L703.997 201.536 701.598 203.593 698.997 200.62 698.997 197.996C698.997 197.731 698.892 197.476 698.704 197.289L696.412 194.996 698.704 192.703C698.892 192.516 698.997 192.261 698.997 191.996L698.997 189.996C698.997 189.731 698.892 189.476 698.704 189.289L696.412 186.996 698.704 184.703C698.892 184.516 698.997 184.261 698.997 183.996L698.997 180.506C698.997 180.07 698.715 179.684 698.299 179.553 693.157 177.923 690.117 172.634 691.23 167.249 692.032 163.369 695.016 160.258 698.831 159.323 702.08 158.526 705.412 159.223 707.972 161.23 710.53 163.237 711.997 166.25 711.997 169.496 711.997 174.049 708.995 178.181 704.696 179.543L704.696 179.543ZM713.997 169.496C713.997 165.632 712.251 162.045 709.206 159.656 706.161 157.267 702.209 156.436 698.355 157.381 693.794 158.498 690.229 162.213 689.271 166.844L689.271 166.845C688.001 172.99 691.3 179.034 696.997 181.215L696.997 183.582 694.29 186.289C693.9 186.68 693.9 187.312 694.29 187.703L696.997 190.41 696.997 191.582 694.29 194.289C693.9 194.68 693.9 195.312 694.29 195.703L696.997 198.41 696.997 200.996C696.997 201.238 697.085 201.472 697.245 201.655L700.745 205.655C700.943 205.88 701.219 205.996 701.497 205.996 701.728 205.996 701.959 205.917 702.148 205.755L705.648 202.755C705.87 202.565 705.997 202.288 705.997 201.996L705.997 181.204C710.743 179.372 713.997 174.662 713.997 169.496L713.997 169.496ZM701.497 171.866C700.119 171.866 698.997 170.745 698.997 169.366 698.997 167.988 700.119 166.866 701.497 166.866 702.876 166.866 703.997 167.988 703.997 169.366 703.997 170.745 702.876 171.866 701.497 171.866L701.497 171.866ZM701.497 164.866C699.016 164.866 696.997 166.885 696.997 169.366 696.997 171.848 699.016 173.866 701.497 173.866 703.979 173.866 705.997 171.848 705.997 169.366 705.997 166.885 703.979 164.866 701.497 164.866L701.497 164.866Z" fill="#FFFFFF" fill-rule="evenodd"/></g></svg>