<svg width="80" height="80" xmlns="http://www.w3.org/2000/svg" xmlns:xlink="http://www.w3.org/1999/xlink" xml:space="preserve" overflow="hidden"><g transform="translate(-135 -130)"><path d="M135 130 215 130 215 210 135 210Z" fill="#8C4FFF" fill-rule="evenodd"/><path d="M196 171.372 190.5 169.172 190.5 189.123C192.106 188.963 193.401 188.435 194.321 187.501 196.021 185.773 196.001 183.24 196 183.215L196 171.372ZM188.5 189.136 188.5 169.172 183 171.372 183 183.195C183.007 183.402 183.234 188.552 188.5 189.136L188.5 189.136ZM198 183.195C198.003 183.308 198.053 186.542 195.765 188.885 194.269 190.418 192.16 191.195 189.5 191.195 182.927 191.195 181.065 185.977 181 183.219L181 170.695C181 170.286 181.249 169.918 181.629 169.766L189.129 166.766C189.367 166.671 189.633 166.671 189.871 166.766L197.371 169.766C197.751 169.918 198 170.286 198 170.695L198 183.195ZM201.001 181.229 201 167.872 189.5 163.272 178 167.872 178 181.195C177.998 181.286 177.865 187.423 181.534 191.199 183.466 193.187 186.146 194.195 189.5 194.195 192.877 194.195 195.57 193.18 197.504 191.179 201.168 187.387 201.003 181.29 201.001 181.229L201.001 181.229ZM198.942 192.568C196.617 194.975 193.44 196.195 189.5 196.195 185.579 196.195 182.413 194.979 180.09 192.581 175.831 188.188 175.991 181.448 176 181.164L176 167.195C176 166.786 176.249 166.418 176.629 166.266L189.129 161.266C189.367 161.171 189.633 161.171 189.871 161.266L202.371 166.266C202.751 166.418 203 166.786 203 167.195L203 181.195C203.009 181.445 203.189 188.173 198.942 192.568L198.942 192.568ZM158.055 177.195 173 177.195 173 179.195 158.055 179.195C151.977 179.195 147.337 175.143 147.024 169.56 147.002 169.332 147 169.066 147 168.8 147 161.931 151.803 159.402 154.604 158.512 154.584 158.191 154.574 157.866 154.574 157.539 154.574 152.086 158.464 146.381 163.621 144.269 169.677 141.789 176.062 142.99 180.695 147.476 182.256 148.997 183.446 150.621 184.307 152.41 185.513 151.375 186.969 150.819 188.529 150.819 191.834 150.819 195.33 153.413 195.931 158.382 198.114 158.932 200.854 160.1 202.788 162.58L201.212 163.81C199.43 161.524 196.741 160.572 194.8 160.174 194.355 160.084 194.028 159.706 194.002 159.254 193.741 154.833 190.982 152.819 188.529 152.819 187.067 152.819 185.771 153.509 184.78 154.814 184.559 155.106 184.199 155.257 183.835 155.199 183.474 155.144 183.17 154.897 183.045 154.554 182.278 152.464 181.054 150.618 179.302 148.911 175.258 144.997 169.676 143.952 164.379 146.12 159.93 147.942 156.574 152.851 156.574 157.539 156.574 158.08 156.605 158.615 156.668 159.128 156.729 159.629 156.405 160.097 155.915 160.219 153.333 160.858 149 162.824 149 168.8 149 169.002 148.998 169.205 149.018 169.408 149.272 173.936 153.072 177.195 158.055 177.195L158.055 177.195Z" fill="#FFFFFF" fill-rule="evenodd"/></g></svg>