<svg width="80" height="80" xmlns="http://www.w3.org/2000/svg" xmlns:xlink="http://www.w3.org/1999/xlink" xml:space="preserve" overflow="hidden"><g transform="translate(-874 -150)"><path d="M874 150 954 150 954 230 874 230Z" fill="#E7157B" fill-rule="evenodd"/><path d="M899 202.996 903 202.996 903 200.994 899 200.994 899 202.996ZM933.971 188.163C933.746 185.126 932.261 182.89 929.902 182.1 928.003 181.467 925.911 181.914 924.318 183.212 923.352 181.308 921.9 179.442 920.702 178.26 916.406 174.02 911.668 172.938 906.616 175.046 902.106 176.922 898 183.087 898 187.981L898 188.171C895.293 189.086 893.109 191.074 892.074 193.609L893.926 194.366C895.245 191.135 898.332 190.122 899.247 189.889 899.69 189.776 900 189.377 900 188.919L900 187.981C900 183.936 903.657 178.445 907.385 176.893 911.68 175.103 915.578 176.011 919.298 179.685 920.88 181.246 922.427 183.561 923.06 185.318 923.184 185.664 923.488 185.913 923.852 185.968 924.212 186.023 924.577 185.874 924.799 185.58 925.904 184.11 927.696 183.474 929.269 183.999 931.004 184.581 932 186.397 932 188.982 932 189.472 932.354 189.889 932.836 189.969 933.569 190.091 940 191.352 940 197.991 940 204.868 933.281 204.996 933 204.998L910 204.998 910 207 933.002 207C936.114 206.994 942 205.104 942 197.991 942 191.784 937.279 188.989 933.971 188.163L933.971 188.163ZM905 202.996 919 202.996 919 200.994 905 200.994 905 202.996ZM901 207 907 207 907 204.998 901 204.998 901 207ZM886 207 889 207 889 204.998 886 204.998 886 207ZM889 198.992 898 198.992 898 196.99 889 196.99 889 198.992ZM887 202.996 897 202.996 897 200.994 887 200.994 887 202.996ZM901 198.992 908 198.992 908 196.99 901 196.99 901 198.992ZM891 207 899 207 899 204.998 891 204.998 891 207Z" fill="#FFFFFF" fill-rule="evenodd"/></g></svg>