<svg width="80" height="80" xmlns="http://www.w3.org/2000/svg" xmlns:xlink="http://www.w3.org/1999/xlink" xml:space="preserve" overflow="hidden"><g transform="translate(-71 -144)"><path d="M71 144 151 144 151 224 71 224Z" fill="#DD344C" fill-rule="evenodd"/><path d="M87.9636 179.808 100.869 179.808 100.869 177.825 87.9636 177.825 87.9636 179.808ZM132.376 194.231 133.779 195.633 126.407 202.994C126.213 203.187 125.959 203.284 125.706 203.284 125.451 203.284 125.197 203.187 125.004 202.994L121.295 199.291 122.699 197.89 125.706 200.891 132.376 194.231ZM136.944 199.694C136.718 201.557 135.959 203.291 134.747 204.709 133.886 205.716 132.799 206.548 131.604 207.115 130.001 207.876 128.22 208.164 126.446 207.948 124.721 207.738 123.095 207.058 121.74 205.982 119.137 203.916 117.822 200.711 118.222 197.409 118.601 194.288 120.492 191.566 123.28 190.127 124.617 189.438 126.08 189.084 127.57 189.084 127.952 189.084 128.337 189.108 128.721 189.155 131.835 189.534 134.55 191.436 135.981 194.243 136.84 195.926 137.172 197.811 136.944 199.694L136.944 199.694ZM137.75 193.344C136.018 189.948 132.732 187.646 128.962 187.187 126.681 186.908 124.403 187.317 122.369 188.366 118.996 190.106 116.708 193.398 116.251 197.171 115.768 201.161 117.358 205.036 120.505 207.535 122.146 208.837 124.117 209.661 126.205 209.916 126.667 209.972 127.13 210 127.592 210 129.271 210 130.93 209.629 132.456 208.906 133.902 208.22 135.218 207.213 136.257 205.995 137.723 204.28 138.643 202.184 138.915 199.932 139.191 197.657 138.788 195.379 137.75 193.344L137.75 193.344ZM97.8907 185.755 101.861 185.755 101.861 183.773 97.8907 183.773 97.8907 185.755ZM87.9636 185.755 95.9053 185.755 95.9053 183.773 87.9636 183.773 87.9636 185.755ZM87.1059 159.982 131.508 159.982C132.677 159.982 133.628 161.139 133.628 162.561L133.628 169.895 130.65 169.895 130.65 164.939C130.65 164.392 130.206 163.948 129.658 163.948L106.825 163.948C106.276 163.948 105.832 164.392 105.832 164.939L105.832 169.895 84.9854 169.895 84.9854 162.561C84.9854 161.163 85.9573 159.982 87.1059 159.982L87.1059 159.982ZM118.256 169.608C120.561 169.608 122.437 171.461 122.437 173.739 122.437 175.241 121.608 176.623 120.273 177.347 119.007 178.034 117.48 178.025 116.23 177.348 114.901 176.622 114.076 175.24 114.076 173.739 114.076 171.461 115.95 169.608 118.256 169.608L118.256 169.608ZM84.9854 191.108 84.9854 171.878 105.832 171.878 105.832 188.729C105.832 189.277 106.276 189.721 106.825 189.721L117.203 189.721 117.203 187.738 108.912 187.738C108.998 183.771 111.636 180.344 115.434 179.25 117.189 180.07 119.285 180.077 121.066 179.249 123.229 179.873 125.121 181.318 126.293 183.254L127.992 182.227C126.788 180.243 124.963 178.695 122.846 177.795 123.838 176.694 124.422 175.263 124.422 173.739 124.422 170.368 121.655 167.625 118.256 167.625 114.856 167.625 112.09 170.368 112.09 173.739 112.09 175.257 112.668 176.683 113.654 177.784 111 178.9 108.928 180.992 107.818 183.573L107.818 165.93 128.665 165.93 128.665 181.79 130.65 181.79 130.65 171.878 133.628 171.878 133.629 186.747 135.615 186.747 135.614 162.561C135.614 160.046 133.772 158 131.508 158L87.1059 158C84.8415 158 83 160.046 83 162.561L83 191.108C83 193.623 84.8415 195.668 87.1059 195.668L113.774 195.668 113.774 193.686 87.1059 193.686C85.9573 193.686 84.9854 192.506 84.9854 191.108L84.9854 191.108Z" fill="#FFFFFF" fill-rule="evenodd"/></g></svg>