<svg width="80" height="80" xmlns="http://www.w3.org/2000/svg" xmlns:xlink="http://www.w3.org/1999/xlink" xml:space="preserve" overflow="hidden"><g transform="translate(-873 -164)"><path d="M873 164 953 164 953 244 873 244Z" fill="#ED7100" fill-rule="evenodd"/><path d="M901.008 230 888.591 230 902.324 201.296 908.546 214.106 901.008 230ZM903.22 198.553C903.051 198.208 902.701 197.989 902.318 197.989L902.315 197.989C901.929 197.99 901.578 198.211 901.412 198.558L886.098 230.569C885.95 230.879 885.971 231.243 886.155 231.534 886.338 231.824 886.658 232 887.002 232L901.642 232C902.03 232 902.382 231.777 902.548 231.428L910.564 214.528C910.693 214.254 910.692 213.937 910.559 213.665L903.22 198.553ZM937.995 230 925.659 230 905.867 188.57C905.701 188.222 905.349 188 904.962 188L896.89 188 896.899 178 912.72 178 932.42 219.429C932.586 219.777 932.939 220 933.326 220L937.995 220 937.995 230ZM938.998 218 933.96 218 914.259 176.571C914.094 176.223 913.741 176 913.353 176L895.898 176C895.345 176 894.896 176.447 894.895 176.999L894.884 188.999C894.884 189.265 894.989 189.519 895.178 189.707 895.365 189.895 895.62 190 895.887 190L904.329 190 924.122 231.43C924.289 231.778 924.639 232 925.026 232L938.998 232C939.552 232 940 231.552 940 231L940 219C940 218.448 939.552 218 938.998 218L938.998 218Z" fill="#FFFFFF" fill-rule="evenodd"/></g></svg>