<svg width="96" height="96" xmlns="http://www.w3.org/2000/svg" xmlns:xlink="http://www.w3.org/1999/xlink" xml:space="preserve" overflow="hidden"><defs><linearGradient x1="93" y1="248.427" x2="93" y2="194.88" gradientUnits="userSpaceOnUse" spreadMethod="pad" id="fill0"><stop offset="0" stop-color="#B3B3B3"/><stop offset="0.26" stop-color="#C1C1C1"/><stop offset="1" stop-color="#E6E6E6"/></linearGradient></defs><g transform="translate(-45 -164)"><path d="M47.6667 194.88 138.333 194.88 138.333 194.88 138.333 245.44C138.333 247.119 136.972 248.48 135.293 248.48L50.7067 248.48C49.0277 248.48 47.6667 247.119 47.6667 245.44L47.6667 194.88 47.6667 194.88Z" fill="url(#fill0)"/><path d="M50.7067 175.573 135.293 175.573C136.972 175.573 138.333 176.934 138.333 178.613L138.333 194.88 138.333 194.88 47.6667 194.88 47.6667 194.88 47.6667 178.56C47.6958 176.902 49.0483 175.573 50.7067 175.573Z" fill="#37C2B1"/><path d="M59.9867 200.747 125.96 200.747C126.734 200.775 127.347 201.412 127.347 202.187L127.347 209.653C127.347 210.428 126.734 211.065 125.96 211.093L59.9867 211.093C59.2123 211.065 58.5995 210.428 58.6 209.653L58.6 202.187C58.5995 201.412 59.2123 200.775 59.9867 200.747Z" fill="#FFFFFF"/><path d="M60.04 215.627 126.013 215.627C126.788 215.655 127.401 216.292 127.4 217.067L127.4 224.587C127.401 225.362 126.788 225.998 126.013 226.027L60.04 226.027C59.2656 225.998 58.6528 225.362 58.6533 224.587L58.6533 217.333C58.5059 216.552 59.0199 215.799 59.8014 215.651 59.8801 215.636 59.9599 215.628 60.04 215.627Z" fill="#37C2B1"/><path d="M60.04 230.667 126.013 230.667C126.788 230.695 127.401 231.332 127.4 232.107L127.4 239.627C127.401 240.402 126.788 241.038 126.013 241.067L60.04 241.067C59.2656 241.038 58.6528 240.402 58.6533 239.627L58.6533 232.107C58.6528 231.332 59.2656 230.695 60.04 230.667Z" fill="#258277"/></g></svg>