<svg width="96" height="96" xmlns="http://www.w3.org/2000/svg" xmlns:xlink="http://www.w3.org/1999/xlink" xml:space="preserve" overflow="hidden"><defs><radialGradient cx="9" cy="9" r="8.5" gradientUnits="userSpaceOnUse" spreadMethod="pad" id="fill0" gradientTransform="matrix(5.33333 0 0 5.33333 45 159)"><stop offset="0" stop-color="#5EA0EF"/><stop offset="0.18" stop-color="#5EA0EF"/><stop offset="0.56" stop-color="#5C9FEE"/><stop offset="0.69" stop-color="#559CED"/><stop offset="0.78" stop-color="#4A97E9"/><stop offset="0.86" stop-color="#3990E4"/><stop offset="0.93" stop-color="#2387DE"/><stop offset="0.99" stop-color="#087BD6"/><stop offset="1" stop-color="#0078D4"/></radialGradient><radialGradient cx="38.95" cy="182.07" r="9.88" gradientUnits="userSpaceOnUse" spreadMethod="pad" id="fill1" gradientTransform="matrix(5.01333 0 0 5.01333 -108.12 -711.613)"><stop offset="0" stop-color="#FFD70F"/><stop offset="0.27" stop-color="#FFD70F"/><stop offset="0.49" stop-color="#FFCB12"/><stop offset="0.88" stop-color="#FEAC19"/><stop offset="1" stop-color="#FEA11B"/></radialGradient></defs><g transform="translate(-45 -159)"><path d="M93 161.667C67.9631 161.667 47.6667 181.963 47.6667 207 47.6667 232.037 67.9631 252.333 93 252.333 118.037 252.333 138.333 232.037 138.333 207 138.304 181.975 118.025 161.696 93 161.667ZM93 246.147C71.3799 246.147 53.8533 228.62 53.8533 207 53.8533 185.38 71.3799 167.853 93 167.853 114.62 167.853 132.147 185.38 132.147 207 132.147 228.62 114.62 246.147 93 246.147Z" fill="url(#fill0)"/><path d="M132.147 207C132.147 228.62 114.62 246.147 93 246.147 71.3799 246.147 53.8533 228.62 53.8533 207 53.8533 185.38 71.3799 167.853 93 167.853 114.62 167.853 132.147 185.38 132.147 207Z" fill="#FFFFFF"/><path d="M116.68 198.093C120.469 194.269 120.469 188.105 116.68 184.28L116.68 184.28 99.88 167.427C96.0734 163.644 89.9266 163.644 86.12 167.427L86.12 167.427 69.32 184.28C65.5307 188.105 65.5307 194.269 69.32 198.093L83.2933 212.333C83.8038 212.842 84.0916 213.533 84.0933 214.253L84.0933 240.28C84.0946 241.157 84.4391 242 85.0533 242.627L91.4533 249.027C92.307 249.881 93.6916 249.881 94.5458 249.028 94.546 249.027 94.5463 249.027 94.5467 249.027L100.733 242.84 100.733 242.84 104.36 239.213C104.834 238.702 104.834 237.911 104.36 237.4L101.747 234.787C101.225 234.232 101.225 233.368 101.747 232.813L104.36 230.2C104.834 229.689 104.834 228.898 104.36 228.387L101.747 225.773C101.225 225.219 101.225 224.355 101.747 223.8L104.36 221.187C104.834 220.675 104.834 219.885 104.36 219.373L100.733 215.693 100.733 214.36ZM93 171.533C96.0486 171.533 98.52 174.005 98.52 177.053 98.52 180.102 96.0486 182.573 93 182.573 89.9514 182.573 87.48 180.102 87.48 177.053 87.48 174.005 89.9514 171.533 93 171.533Z" fill="url(#fill1)"/><path d="M88.6267 240.6 88.6267 240.6C89.1401 241.042 89.9147 240.984 90.3566 240.47 90.543 240.254 90.6479 239.979 90.6533 239.693L90.6533 218.36C90.6502 217.928 90.4296 217.527 90.0667 217.293L90.0667 217.293C89.5246 216.938 88.7973 217.09 88.4422 217.631 88.301 217.847 88.2346 218.103 88.2533 218.36L88.2533 239.693C88.2722 240.029 88.4037 240.348 88.6267 240.6Z" fill="#FF9300" fill-opacity="0.75"/><path d="M105.64 189.88C106.465 189.88 107.133 190.549 107.133 191.373L107.133 191.64C107.133 192.465 106.465 193.133 105.64 193.133L81.0533 193.133C80.2286 193.133 79.56 192.465 79.56 191.64L79.56 191.373C79.56 190.549 80.2286 189.88 81.0533 189.88Z" fill="#FF9300" fill-opacity="0.75"/><path d="M105.64 195.16C106.465 195.16 107.133 195.829 107.133 196.653L107.133 196.92C107.133 197.745 106.465 198.413 105.64 198.413L81.0533 198.413C80.2286 198.413 79.56 197.745 79.56 196.92L79.56 196.653C79.56 195.829 80.2286 195.16 81.0533 195.16Z" fill="#FF9300" fill-opacity="0.75"/></g></svg>