<svg width="96" height="96" xmlns="http://www.w3.org/2000/svg" xmlns:xlink="http://www.w3.org/1999/xlink" xml:space="preserve" overflow="hidden"><defs><linearGradient x1="93.6672" y1="418.904" x2="93.6672" y2="333.791" gradientUnits="userSpaceOnUse" spreadMethod="pad" id="fill0"><stop offset="0" stop-color="#FEA11B"/><stop offset="0.284" stop-color="#FEA51A"/><stop offset="0.547" stop-color="#FEB018"/><stop offset="0.8" stop-color="#FFC314"/><stop offset="1" stop-color="#FFD70F"/></linearGradient></defs><g transform="translate(-45 -329)"><path d="M74.549 398.894 71.4233 402.028C70.868 402.585 69.9664 402.586 69.4095 402.031L46.1911 378.878C45.0793 377.77 45.0769 375.97 46.1855 374.858L49.3262 371.709 49.3262 371.709 74.5612 396.872C75.1181 397.428 75.1194 398.329 74.5641 398.886Z" fill="#50E6FF"/><path d="M70.938 351.959 74.0838 355.096C74.6407 355.652 74.642 356.553 74.0867 357.11L49.2958 381.971 49.2958 381.971 46.1461 378.831C45.0344 377.722 45.0317 375.922 46.1404 374.81L68.9316 351.955C69.4882 351.405 70.384 351.407 70.938 351.959Z" fill="#1490DF"/><path d="M136.678 371.73 139.815 374.876C140.924 375.988 140.921 377.788 139.809 378.896L116.591 402.049C116.034 402.604 115.133 402.603 114.577 402.046L111.455 398.915C110.9 398.358 110.901 397.457 111.458 396.902L136.689 371.742 136.689 371.742Z" fill="#50E6FF"/><path d="M139.837 378.817 136.691 381.954 136.691 381.954 111.9 357.093C111.345 356.536 111.346 355.634 111.903 355.079L115.049 351.942C115.606 351.386 116.507 351.388 117.063 351.945L139.854 374.801C140.963 375.912 140.96 377.712 139.848 378.821Z" fill="#1490DF"/><path d="M90.1147 381.8 70.9733 381.8C70.4146 381.821 69.941 381.393 69.9067 380.835 69.9068 380.696 69.9397 380.559 70.0027 380.435L92.952 335.027C93.1511 334.668 93.5337 334.45 93.944 334.461L116.584 334.461C117.143 334.44 117.617 334.869 117.651 335.427 117.649 335.62 117.583 335.808 117.464 335.96L90.5147 371.485 116.797 371.485C117.356 371.464 117.83 371.893 117.864 372.451 117.86 372.695 117.761 372.929 117.587 373.101L73.912 418.536C73.5013 418.781 70.584 421.203 72.0133 417.528L72.0133 417.528Z" fill="url(#fill0)"/></g></svg>