<svg width="96" height="96" xmlns="http://www.w3.org/2000/svg" xmlns:xlink="http://www.w3.org/1999/xlink" xml:space="preserve" overflow="hidden"><defs><linearGradient x1="279.053" y1="295" x2="279.053" y2="383" gradientUnits="userSpaceOnUse" spreadMethod="pad" id="fill0"><stop offset="0" stop-color="#5EA0EF"/><stop offset="0.18" stop-color="#559CEC"/><stop offset="0.47" stop-color="#3C91E5"/><stop offset="0.84" stop-color="#1380DA"/><stop offset="1" stop-color="#0078D4"/></linearGradient></defs><g transform="translate(-231 -291)"><path d="M318.253 335.8C318.253 361.613 287.053 382.413 280.28 386.627 279.494 387.107 278.506 387.107 277.72 386.627 270.947 382.413 239.747 361.613 239.747 335.8L239.747 304.76C239.746 303.426 240.813 302.336 242.147 302.307 266.413 301.667 260.813 291 279 291 297.187 291 291.587 301.667 315.853 302.307 317.187 302.336 318.254 303.426 318.253 304.76Z" fill="#0078D4"/><path d="M315 336.067C315 359.747 286.413 378.733 280.173 382.68 279.45 383.11 278.55 383.11 277.827 382.68 271.587 378.84 243 359.747 243 336.067L243 307.587C243 306.37 243.97 305.376 245.187 305.347 267.427 304.76 262.307 295 279 295 295.693 295 290.573 304.76 312.813 305.347 314.029 305.376 315.001 306.37 315 307.587Z" fill="#6BB9F2"/><path d="M279 339 279 295C295.693 295 290.573 304.76 312.813 305.347 314.038 305.404 315.001 306.414 315 307.64L315 336.12C315.053 337.079 315.053 338.041 315 339ZM279 339 243.16 339C245.293 361.293 271.853 379 277.827 382.68 278.115 382.864 278.445 382.974 278.787 383L279 383Z" fill="url(#fill0)"/><path d="M245.187 305.347C267.427 304.76 262.307 295 279 295L279 339 243.16 339C243.107 338.041 243.107 337.079 243.16 336.12L243.16 307.64C243.152 306.471 244.025 305.483 245.187 305.347Z" fill="#50E6FF"/><path d="M314.84 339 279 339 279 383 279 383C279.341 382.974 279.671 382.864 279.96 382.68 286.147 379 312.707 361.293 314.84 339Z" fill="#50E6FF"/></g></svg>