<svg width="96" height="96" xmlns="http://www.w3.org/2000/svg" xmlns:xlink="http://www.w3.org/1999/xlink" xml:space="preserve" overflow="hidden"><defs><linearGradient x1="130.067" y1="416.173" x2="130.067" y2="388.28" gradientUnits="userSpaceOnUse" spreadMethod="pad" id="fill0"><stop offset="0" stop-color="#198AB3"/><stop offset="0.16" stop-color="#1F9AC2"/><stop offset="0.5" stop-color="#29BADE"/><stop offset="0.8" stop-color="#30CDEF"/><stop offset="1" stop-color="#32D4F5"/></linearGradient></defs><g transform="translate(-85 -355)"><path d="M143.933 402.2C143.933 409.888 137.725 416.12 130.067 416.12 122.408 416.12 116.2 409.888 116.2 402.2 116.2 394.512 122.408 388.28 130.067 388.28 137.725 388.28 143.933 394.512 143.933 402.2Z" fill="url(#fill0)"/><path d="M175.667 380.44C175.667 384.21 172.634 387.267 168.893 387.267 165.153 387.267 162.12 384.21 162.12 380.44 162.12 376.67 165.153 373.613 168.893 373.613 172.634 373.613 175.667 376.67 175.667 380.44Z" fill="#32BEDD"/><path d="M175.667 402.733C175.667 406.504 172.634 409.56 168.893 409.56 165.153 409.56 162.12 406.504 162.12 402.733 162.12 398.963 165.153 395.907 168.893 395.907 172.634 395.907 175.667 398.963 175.667 402.733Z" fill="#32BEDD"/><path d="M175.667 424.973C175.667 428.744 172.634 431.8 168.893 431.8 165.153 431.8 162.12 428.744 162.12 424.973 162.12 421.203 165.153 418.147 168.893 418.147 172.634 418.147 175.667 421.203 175.667 424.973Z" fill="#32BEDD"/><path d="M160.2 391.853C160.2 395.624 157.167 398.68 153.427 398.68 149.686 398.68 146.653 395.624 146.653 391.853 146.653 388.083 149.686 385.027 153.427 385.027 157.167 385.027 160.2 388.083 160.2 391.853Z" fill="#50E6FF"/><path d="M160.2 414.147C160.2 417.917 157.167 420.973 153.427 420.973 149.686 420.973 146.653 417.917 146.653 414.147 146.653 410.376 149.686 407.32 153.427 407.32 157.167 407.32 160.2 410.376 160.2 414.147Z" fill="#50E6FF"/><path d="M97.8533 384.76C97.9745 384.579 98.1397 384.432 98.3333 384.333L129.373 366.253C129.8 366.253 156.04 381.08 156.04 381.08 156.652 381.434 157.435 381.224 157.789 380.612 157.903 380.414 157.962 380.189 157.96 379.96L157.96 374.147C157.964 373.685 157.719 373.257 157.32 373.027 157.32 373.027 129.8 357.453 129.427 357.667L90.92 379.747 90.3333 380.173Z" fill="#949494"/><path d="M155.933 425.08 130.653 439.64C130.459 439.671 130.261 439.671 130.067 439.64L130.067 448.173C130.258 448.228 130.462 448.228 130.653 448.173L157.32 432.92C157.703 432.699 157.946 432.295 157.96 431.853L157.96 426.2C158.005 425.494 157.47 424.886 156.765 424.841 156.468 424.821 156.174 424.906 155.933 425.08Z" fill="#949494"/><path d="M130.067 439.8C129.838 439.849 129.602 439.849 129.373 439.8L98.3333 421.507C97.9335 421.303 97.6851 420.889 97.6933 420.44L97.6933 385.4C97.6453 385.189 97.6453 384.971 97.6933 384.76L90.3333 380.173C90.2789 380.401 90.2789 380.639 90.3333 380.867L90.3333 424.973C90.318 425.424 90.5409 425.85 90.92 426.093L129.427 448.173C129.637 448.228 129.857 448.228 130.067 448.173Z" fill="#B3B3B3"/></g></svg>