<svg width="96" height="96" xmlns="http://www.w3.org/2000/svg" xmlns:xlink="http://www.w3.org/1999/xlink" xml:space="preserve" overflow="hidden"><defs><clipPath id="clip0"><rect x="45" y="150" width="96" height="96"/></clipPath><linearGradient x1="108.584" y1="193.606" x2="117.343" y2="202.341" gradientUnits="userSpaceOnUse" spreadMethod="pad" id="fill1"><stop offset="0" stop-color="#86D633"/><stop offset="1" stop-color="#5E9624"/></linearGradient><linearGradient x1="77.96" y1="195.813" x2="86.6533" y2="204.56" gradientUnits="userSpaceOnUse" spreadMethod="pad" id="fill2"><stop offset="0" stop-color="#86D633"/><stop offset="1" stop-color="#5E9624"/></linearGradient><linearGradient x1="58.2267" y1="195.813" x2="66.92" y2="204.56" gradientUnits="userSpaceOnUse" spreadMethod="pad" id="fill3"><stop offset="0" stop-color="#86D633"/><stop offset="1" stop-color="#5E9624"/></linearGradient></defs><g clip-path="url(#clip0)" transform="translate(-45 -150)"><path d="M119.133 197.947C119.133 201.363 116.363 204.133 112.947 204.133 109.53 204.133 106.76 201.363 106.76 197.947 106.76 194.53 109.53 191.76 112.947 191.76 116.363 191.76 119.133 194.53 119.133 197.947Z" fill="url(#fill1)"/><path d="M99.4 198C99.4 201.417 96.6301 204.187 93.2133 204.187 89.7965 204.187 87.0267 201.417 87.0267 198 87.0267 194.583 89.7965 191.813 93.2133 191.813 96.6301 191.813 99.4 194.583 99.4 198Z" fill="url(#fill2)"/><path d="M79.6667 198C79.6667 201.417 76.8968 204.187 73.48 204.187 70.0632 204.187 67.2933 201.417 67.2933 198 67.2933 194.583 70.0632 191.813 73.48 191.813 76.8968 191.813 79.6667 194.583 79.6667 198Z" fill="url(#fill3)"/><path d="M77.9713 222.734 74.4313 226.284C73.8073 226.909 72.7943 226.911 72.1685 226.287L45.9596 200.151C44.7081 198.903 44.7054 196.877 45.9533 195.626L49.4933 192.076 49.4933 192.076 77.9681 220.471C78.5938 221.095 78.5952 222.108 77.9713 222.734Z" fill="#50E6FF"/><path d="M73.8955 169.777 77.4454 173.317C78.0712 173.941 78.0726 174.954 77.4486 175.58L49.4675 203.639 49.4675 203.639 45.9175 200.099C44.6661 198.851 44.6632 196.825 45.9112 195.574L71.6328 169.78C72.2568 169.155 73.2698 169.153 73.8955 169.777Z" fill="#1490DF"/><path d="M136.502 192.027 140.042 195.577C141.29 196.828 141.287 198.854 140.036 200.102L113.827 226.238C113.201 226.862 112.188 226.861 111.564 226.235L108.024 222.685C107.4 222.059 107.402 221.046 108.027 220.422L136.502 192.027 136.502 192.027Z" fill="#50E6FF"/><path d="M140.031 200.064 136.481 203.604 136.481 203.604 108.5 175.545C107.876 174.919 107.877 173.906 108.503 173.282L112.091 169.705C112.717 169.081 113.73 169.082 114.354 169.708L140.075 195.501C141.323 196.753 141.32 198.779 140.069 200.027Z" fill="#1490DF"/></g></svg>