<svg width="96" height="96" xmlns="http://www.w3.org/2000/svg" xmlns:xlink="http://www.w3.org/1999/xlink" xml:space="preserve" overflow="hidden"><defs><clipPath id="clip0"><rect x="45" y="291" width="96" height="96"/></clipPath><linearGradient x1="113.78" y1="288.12" x2="113.78" y2="327.917" gradientUnits="userSpaceOnUse" spreadMethod="pad" id="fill1"><stop offset="0" stop-color="#5EA0EF"/><stop offset="1" stop-color="#0078D4"/></linearGradient><linearGradient x1="72.218" y1="317.853" x2="72.218" y2="357.65" gradientUnits="userSpaceOnUse" spreadMethod="pad" id="fill2"><stop offset="0" stop-color="#5EA0EF"/><stop offset="1" stop-color="#0078D4"/></linearGradient></defs><g clip-path="url(#clip0)" transform="translate(-45 -291)"><path d="M133.733 355.572 129.455 359.862C128.7 360.62 127.474 360.621 126.717 359.866L95.0616 328.3C93.5453 326.788 93.5419 324.333 95.0539 322.817L99.3319 318.527 99.3319 318.527 133.733 352.83C134.49 353.585 134.492 354.811 133.737 355.568 133.735 355.569 133.734 355.571 133.733 355.572Z" fill="#83B9F9"/><path d="M128.818 291.564 133.108 295.842C133.865 296.597 133.867 297.823 133.112 298.58L99.3092 332.479 99.3092 332.479 95.019 328.201C93.5027 326.689 93.4992 324.233 95.0113 322.717L126.072 291.568C126.827 290.811 128.053 290.809 128.81 291.564Z" fill="url(#fill1)"/><path d="M86.6681 345.098 90.9462 349.388C92.4582 350.904 92.4548 353.359 90.9384 354.871L59.2833 386.437C58.5261 387.192 57.3003 387.19 56.5454 386.433L52.2635 382.139C51.5085 381.382 51.5102 380.156 52.2674 379.401L86.6681 345.098 86.6681 345.098Z" fill="#83B9F9"/><path d="M90.9759 354.768 86.6858 359.046 86.6858 359.046 52.8906 325.155C52.1355 324.398 52.1373 323.172 52.8944 322.417L57.1846 318.139C57.9418 317.384 59.1675 317.386 59.9225 318.143L90.9837 349.292C92.4957 350.809 92.4922 353.264 90.9759 354.776Z" fill="url(#fill2)"/></g></svg>