<svg width="96" height="96" xmlns="http://www.w3.org/2000/svg" xmlns:xlink="http://www.w3.org/1999/xlink" xml:space="preserve" overflow="hidden"><defs><linearGradient x1="871" y1="245.453" x2="871" y2="162.307" gradientUnits="userSpaceOnUse" spreadMethod="pad" id="fill0"><stop offset="0" stop-color="#1B93EB"/><stop offset="0.21" stop-color="#2095EB"/><stop offset="0.44" stop-color="#2E9CED"/><stop offset="0.69" stop-color="#45A7EF"/><stop offset="0.95" stop-color="#64B6F1"/><stop offset="1" stop-color="#6BB9F2"/></linearGradient></defs><g transform="translate(-823 -159)"><path d="M908.333 204.013C908.333 228.387 878.84 248.013 872.44 252.013 871.691 252.487 870.736 252.487 869.987 252.013 863.373 248.013 833.667 228.333 833.667 204.013L833.667 174.68C833.666 173.405 834.685 172.362 835.96 172.333 859.107 171.747 853.827 161.667 871 161.667 888.173 161.667 882.893 171.747 905.827 172.333 907.102 172.362 908.121 173.405 908.12 174.68Z" fill="#1B93EB"/><path d="M905.027 204.227C905.027 226.627 877.987 244.6 872.12 248.227 871.433 248.65 870.567 248.65 869.88 248.227 864.013 244.6 836.973 226.627 836.973 204.227L836.973 177.56C836.765 176.37 837.561 175.237 838.75 175.029 838.833 175.015 838.916 175.005 839 175 860.013 174.413 855 165.24 871 165.24 887 165.24 881.933 174.627 903 175 904.146 175.056 905.053 175.987 905.08 177.133Z" fill="url(#fill0)"/><path d="M871 193.827C878.617 193.855 885.062 199.461 886.147 207 886.381 208.253 887.485 209.155 888.76 209.133L896.227 209.133C897.669 209.168 898.867 208.026 898.901 206.583 898.903 206.491 898.901 206.399 898.893 206.307 897.241 190.902 883.413 179.753 868.008 181.405 854.883 182.813 844.515 193.181 843.107 206.307 842.988 207.745 844.059 209.007 845.497 209.125 845.589 209.133 845.681 209.136 845.773 209.133L853.24 209.133C854.515 209.155 855.619 208.253 855.853 207 856.938 199.461 863.383 193.855 871 193.827Z" fill="#C3F1FF"/><path d="M881.187 209.133C881.187 214.759 876.626 219.32 871 219.32 865.374 219.32 860.813 214.759 860.813 209.133 860.813 203.507 865.374 198.947 871 198.947 876.626 198.947 881.187 203.507 881.187 209.133Z" fill="#FFFFFF"/></g></svg>