<svg width="96" height="96" xmlns="http://www.w3.org/2000/svg" xmlns:xlink="http://www.w3.org/1999/xlink" xml:space="preserve" overflow="hidden"><g transform="translate(-274 -157)"><path d="M276.667 237.427C276.664 237.734 276.827 238.02 277.093 238.173L283.28 241.64 293.733 247.667C294.161 247.911 294.706 247.769 294.96 247.347L298.48 241.373C298.684 240.974 298.544 240.484 298.16 240.253L285.893 233.32C285.635 233.159 285.474 232.878 285.467 232.573L285.467 177.533C285.464 177.226 285.627 176.94 285.893 176.787L298.16 169.853C298.544 169.622 298.684 169.133 298.48 168.733L294.96 162.76C294.748 162.306 294.208 162.111 293.755 162.323 293.747 162.326 293.74 162.33 293.733 162.333L283.493 168.253 277.093 171.827C276.827 171.98 276.664 172.266 276.667 172.573L276.667 237.427Z" fill="#949494"/><path d="M285.413 177.107 285.733 176.787 298 169.853C298.38 169.694 298.559 169.256 298.399 168.876 298.378 168.826 298.351 168.778 298.32 168.733L294.8 162.76C294.658 162.342 294.204 162.117 293.785 162.259 293.73 162.278 293.677 162.303 293.627 162.333L283.333 168.253 276.987 171.827C276.987 171.827 276.72 171.827 276.667 172.147L281.467 174.867Z" fill="#A3A3A3"/><path d="M298 240.147 285.733 233.213C285.569 233.089 285.44 232.923 285.36 232.733L276.72 238.067 276.987 238.067 283.12 241.533 293.787 247.453C294.152 247.702 294.65 247.607 294.898 247.242 294.922 247.207 294.942 247.171 294.96 247.133L298.48 241.16C298.643 240.781 298.469 240.342 298.09 240.179 298.061 240.166 298.031 240.155 298 240.147Z" fill="#A3A3A3"/><path d="M367.333 237.427C367.336 237.734 367.173 238.02 366.907 238.173L360.72 241.64 350.267 247.667C349.839 247.911 349.294 247.769 349.04 247.347L345.52 241.373C345.316 240.974 345.455 240.484 345.84 240.253L358.107 233.32C358.365 233.159 358.526 232.878 358.533 232.573L358.533 177.533C358.536 177.226 358.373 176.94 358.107 176.787L345.84 169.853C345.455 169.622 345.316 169.133 345.52 168.733L349.04 162.76C349.252 162.306 349.792 162.111 350.245 162.323 350.253 162.326 350.26 162.33 350.267 162.333L360.507 168.147 366.907 171.72C367.173 171.874 367.336 172.159 367.333 172.467L367.333 237.427Z" fill="#949494"/><path d="M358.587 177.107 358.267 176.787 346 169.853C345.62 169.694 345.441 169.256 345.601 168.876 345.622 168.826 345.649 168.778 345.68 168.733L349.2 162.76C349.342 162.342 349.796 162.117 350.214 162.259 350.27 162.278 350.323 162.303 350.373 162.333L360.667 168.147 367.013 171.72C367.013 171.72 367.013 171.72 367.333 172.04L362.533 174.76Z" fill="#A3A3A3"/><path d="M346 240.147 358.267 233.213C358.431 233.089 358.56 232.923 358.64 232.733L367.28 238.067 367.28 238.067 361.147 241.533 350.48 247.453C350.115 247.702 349.617 247.607 349.369 247.242 349.345 247.207 349.324 247.171 349.307 247.133L345.787 241.16C345.574 240.82 345.668 240.372 346 240.147Z" fill="#A3A3A3"/><path d="M350.32 188.627 350.32 221.373 321.947 237.853 321.947 205.053 350.32 188.627Z" fill="#32BEDD"/><path d="M350.32 188.627 322 205.107 293.627 188.627 322 172.147 350.32 188.627Z" fill="#9CEBFF"/><path d="M321.947 205.107 321.947 237.853 293.627 221.373 293.627 188.627 321.947 205.107Z" fill="#50E6FF"/><path d="M293.627 221.373 321.947 205.053 321.947 237.853 293.627 221.373Z" fill="#9CEBFF"/><path d="M350.32 221.373 321.947 205.053 321.947 237.853 350.32 221.373Z" fill="#50E6FF"/></g></svg>