<svg width="96" height="96" xmlns="http://www.w3.org/2000/svg" xmlns:xlink="http://www.w3.org/1999/xlink" xml:space="preserve" overflow="hidden"><g transform="translate(-85 -166)"><path d="M105.277 240.837C107.347 242.128 110.787 243.563 114.424 243.563 117.736 243.563 120.813 242.603 123.363 240.965 123.363 240.965 123.368 240.965 123.373 240.96L133 234.944 133 256.667C131.475 256.667 129.939 256.251 128.605 255.419L105.277 240.837Z" fill="#225086"/><path d="M126.883 174.037 86.8827 219.157C83.7947 222.645 84.6 227.915 88.6053 230.416 88.6053 230.416 103.411 239.669 105.277 240.837 107.347 242.128 110.787 243.563 114.424 243.563 117.736 243.563 120.813 242.603 123.363 240.965 123.363 240.965 123.368 240.965 123.373 240.96L133 234.944 109.725 220.395 133.005 194.133 133.005 171.333C133.005 171.333 133.005 171.333 133.005 171.333 130.744 171.333 128.488 172.235 126.888 174.037Z" fill="#66DDFF"/><path d="M109.725 220.395 110.003 220.565 133 234.944 133.005 234.944 133.005 234.944 133.005 194.139 133 194.133 109.725 220.395Z" fill="#CBF8FF"/><path d="M177.395 230.416C181.4 227.915 182.205 222.645 179.117 219.157L152.872 189.552C150.755 188.565 148.381 188 145.869 188 140.936 188 136.525 190.128 133.592 193.472L133.011 194.128 133.011 194.128C133.011 194.128 156.285 220.389 156.285 220.389L156.285 220.389C156.285 220.389 156.285 220.389 156.285 220.389L133.005 234.939 133.005 256.661C134.536 256.661 136.061 256.245 137.395 255.413L177.395 230.411Z" fill="#074793"/><path d="M133.005 171.333 133.005 194.133C133.005 194.133 133.587 193.477 133.587 193.477 136.52 190.133 140.931 188.005 145.864 188.005 148.381 188.005 150.749 188.576 152.867 189.557L139.112 174.043C137.517 172.24 135.256 171.339 133 171.339Z" fill="#0294E4"/><path d="M156.28 220.395 156.28 220.395 156.28 220.395 133.005 194.139 133.005 234.939 156.28 220.395Z" fill="#96BCC2"/></g></svg>